<svg xmlns="http://www.w3.org/2000/svg" width="9.208" height="13.566" viewBox="0 0 9.208 13.566">
  <path id="Icon_metro-pin" data-name="Icon metro-pin" d="M16.687,13.927l-4.528-2.614A1.162,1.162,0,1,0,11,13.324l4.528,2.614a1.162,1.162,0,0,0,1.163-2.012ZM12.952,11.1l3.522,2.033,1.2-3.334L15.24,8.4l-2.288,2.7Zm-2.6,8.564,3.369-4.092L12.216,14.7l-1.86,4.964ZM19.128,7.956,16.109,6.213a.871.871,0,1,0-.871,1.509l3.019,1.743a.871.871,0,1,0,.871-1.509Z" transform="translate(-10.356 -6.097)" fill="#707070"/>
</svg>
